# xmcd CD database file
#
# Track frame offsets:
#	150
#	17981
#	32188
#	45379
#	62585
#	80947
#	99092
#	117427
#	138117
#	152000
#	169025
#	184466
#	202802
#	237369
#
# Disc length: 3365 seconds
#
# Revision: 1
# Processed by: cddbd v1.5.2PL0 Copyright (c) Steve Scherf et al.
# Submitted via: CDex 1.79
#
DISCID=b50d230e
DTITLE=Big House - Never Ending Train
DYEAR=2008
DGENRE=Country
TTITLE0=The Highway Is My Home
TTITLE1=She's Got The Magic
TTITLE2=Guitars and Whiskey
TTITLE3=Never Ending Train
TTITLE4=Ease Me Down
TTITLE5=Hey Jenny
TTITLE6=So Far Away From Now
TTITLE7=Louisiana In The Rain
TTITLE8=Real Good Time
TTITLE9=Losing My Angels
TTITLE10=Somebody To Love
TTITLE11=Alone In L.A.
TTITLE12=I Know You Rider
TTITLE13=Honky Tonk With You
EXTD=YEAR: 2008
EXTT0=
EXTT1=
EXTT2=
EXTT3=
EXTT4=
EXTT5=
EXTT6=
EXTT7=
EXTT8=
EXTT9=
EXTT10=
EXTT11=
EXTT12=
EXTT13=
PLAYORDER=
